<svg width="83" height="87" viewBox="0 0 83 87" fill="none" xmlns="http://www.w3.org/2000/svg">
<path d="M67.0994 37.5952C67.0994 37.5598 67.0994 35.2729 66.7132 30.4493C65.7909 18.9285 60.7424 12.5489 59.5783 10.974C57.7712 8.52913 51.0243 4.94835 45.331 3.24376C39.0213 1.35461 31.5461 3.56738 26.9573 4.34952C23.3243 4.96874 19.5343 9.06479 16.5612 12.5822C12.917 16.8936 11.3556 19.5215 8.78896 26.4502C8.09077 28.335 7.60955 29.2135 7.18724 29.4229C0.701137 32.6387 3.5734 12.0585 3.40571 11.6603C0.656804 5.13248 5.00055 28.9276 5.44422 30.1488C12.327 30.211 25.0903 27.8522 27.0761 26.8171C27.6108 26.5432 28.2384 26.2521 28.8905 25.8914" stroke="#FF3C3C" stroke-width="5" stroke-linecap="round"/>
<path d="M10.3892 57.8443C10.4111 61.8358 10.9065 71.0067 12.3282 73.5235C13.9943 76.473 18.2364 78.1448 20.3373 79.4009C21.9609 80.3716 24.0458 81.2716 27.2233 82.2792C32.3691 83.911 39.2759 84.3284 45.1488 84.2281C49.8246 84.1483 52.0987 82.4359 56.2572 79.194C60.7252 75.7109 60.8965 70.275 62.8371 63.1879C63.8304 59.5606 64.2136 56.3596 64.638 53.6632C64.7232 53.1216 64.9207 52.5711 64.7646 52.2078C64.6084 51.8446 64.1124 51.6887 63.1427 51.9314C60.6619 52.5523 55.3624 56.236 50.727 59.9052C44.6093 64.7478 64.231 53.7019 65.3678 53.5474C69.1884 55.9677 74.8994 62.3855 77.7921 66.4945C78.2696 67.1742 78.6145 67.6006 79.5191 68.8611" stroke="#FF3C3C" stroke-width="5" stroke-linecap="round"/>
</svg>
